<mxfile host="drawio-plugin" modified="2021-05-23T16:03:11.742Z" agent="5.0 (Macintosh; Intel Mac OS X 10_16_0) AppleWebKit/537.36 (KHTML, like Gecko) Chrome/84.0.4147.105 Safari/537.36" etag="2oR_6TMbzrhIdWlEF5GC" version="14.6.6" type="embed"><diagram id="uM3XqLlnNe6RMDAsHj9Y" name="Page-1"><mxGraphModel dx="863" dy="737" grid="0" gridSize="10" guides="1" tooltips="1" connect="1" arrows="1" fold="1" page="0" pageScale="1" pageWidth="850" pageHeight="1100" math="0" shadow="0"><root><mxCell id="0"/><mxCell id="1" parent="0"/><mxCell id="2" value="GUI " style="shape=module;align=left;spacingLeft=20;align=center;verticalAlign=top;" parent="1" vertex="1"><mxGeometry x="40" y="40" width="520" height="160" as="geometry"/></mxCell><mxCell id="3" value="Author UI" style="shape=folder;fontStyle=1;spacingTop=10;tabWidth=40;tabHeight=14;tabPosition=left;html=1;" parent="1" vertex="1"><mxGeometry x="80" y="90" width="110" height="50" as="geometry"/></mxCell><mxCell id="4" value="Event Card UI" style="shape=folder;fontStyle=1;spacingTop=10;tabWidth=40;tabHeight=14;tabPosition=left;html=1;" parent="1" vertex="1"><mxGeometry x="230" y="90" width="110" height="50" as="geometry"/></mxCell><mxCell id="9" value="Story UI" style="shape=folder;fontStyle=1;spacingTop=10;tabWidth=40;tabHeight=14;tabPosition=left;html=1;" parent="1" vertex="1"><mxGeometry x="380" y="90" width="110" height="50" as="geometry"/></mxCell><mxCell id="22" value="Application" style="shape=module;align=left;spacingLeft=20;align=center;verticalAlign=top;" parent="1" vertex="1"><mxGeometry x="120" y="240" width="520" height="160" as="geometry"/></mxCell><mxCell id="23" value="Author Controller" style="shape=folder;fontStyle=1;spacingTop=10;tabWidth=40;tabHeight=14;tabPosition=left;html=1;" parent="1" vertex="1"><mxGeometry x="160" y="290" width="110" height="50" as="geometry"/></mxCell><mxCell id="24" value="Event Card&lt;br&gt;&amp;nbsp;Controller" style="shape=folder;fontStyle=1;spacingTop=10;tabWidth=40;tabHeight=14;tabPosition=left;html=1;" parent="1" vertex="1"><mxGeometry x="310" y="290" width="110" height="50" as="geometry"/></mxCell><mxCell id="25" value="Story Controller" style="shape=folder;fontStyle=1;spacingTop=10;tabWidth=40;tabHeight=14;tabPosition=left;html=1;" parent="1" vertex="1"><mxGeometry x="460" y="290" width="110" height="50" as="geometry"/></mxCell><mxCell id="26" value="Domain" style="shape=module;align=left;spacingLeft=20;align=center;verticalAlign=top;" parent="1" vertex="1"><mxGeometry x="200" y="440" width="520" height="160" as="geometry"/></mxCell><mxCell id="27" value="Author" style="shape=folder;fontStyle=1;spacingTop=10;tabWidth=40;tabHeight=14;tabPosition=left;html=1;" parent="1" vertex="1"><mxGeometry x="240" y="490" width="110" height="50" as="geometry"/></mxCell><mxCell id="28" value="Event Card" style="shape=folder;fontStyle=1;spacingTop=10;tabWidth=40;tabHeight=14;tabPosition=left;html=1;" parent="1" vertex="1"><mxGeometry x="390" y="490" width="110" height="50" as="geometry"/></mxCell><mxCell id="29" value="Story" style="shape=folder;fontStyle=1;spacingTop=10;tabWidth=40;tabHeight=14;tabPosition=left;html=1;" parent="1" vertex="1"><mxGeometry x="540" y="490" width="110" height="50" as="geometry"/></mxCell><mxCell id="30" value="Function" style="shape=module;align=left;spacingLeft=20;align=center;verticalAlign=top;" parent="1" vertex="1"><mxGeometry x="280" y="640" width="520" height="160" as="geometry"/></mxCell><mxCell id="31" value="Author Function" style="shape=folder;fontStyle=1;spacingTop=10;tabWidth=40;tabHeight=14;tabPosition=left;html=1;" parent="1" vertex="1"><mxGeometry x="320" y="690" width="110" height="50" as="geometry"/></mxCell><mxCell id="32" value="Event Card&lt;br&gt;&amp;nbsp;Function" style="shape=folder;fontStyle=1;spacingTop=10;tabWidth=40;tabHeight=14;tabPosition=left;html=1;" parent="1" vertex="1"><mxGeometry x="470" y="690" width="110" height="50" as="geometry"/></mxCell><mxCell id="33" value="Story Function" style="shape=folder;fontStyle=1;spacingTop=10;tabWidth=40;tabHeight=14;tabPosition=left;html=1;" parent="1" vertex="1"><mxGeometry x="620" y="690" width="110" height="50" as="geometry"/></mxCell><mxCell id="34" value="Database" style="shape=module;align=left;spacingLeft=20;align=center;verticalAlign=top;" parent="1" vertex="1"><mxGeometry x="360" y="840" width="520" height="160" as="geometry"/></mxCell><mxCell id="35" value="Connection Util" style="shape=folder;fontStyle=1;spacingTop=10;tabWidth=40;tabHeight=14;tabPosition=left;html=1;" parent="1" vertex="1"><mxGeometry x="400" y="890" width="110" height="50" as="geometry"/></mxCell><mxCell id="36" value="CRUD" style="shape=folder;fontStyle=1;spacingTop=10;tabWidth=40;tabHeight=14;tabPosition=left;html=1;" parent="1" vertex="1"><mxGeometry x="550" y="890" width="110" height="50" as="geometry"/></mxCell><mxCell id="40" value="Use" style="endArrow=open;endSize=12;dashed=1;html=1;edgeStyle=orthogonalEdgeStyle;curved=1;" parent="1" source="2" target="22" edge="1"><mxGeometry width="160" relative="1" as="geometry"><mxPoint x="-207" y="349" as="sourcePoint"/><mxPoint x="3.2499999999997726" y="424.25" as="targetPoint"/></mxGeometry></mxCell><mxCell id="42" value="Use" style="endArrow=open;endSize=12;dashed=1;html=1;edgeStyle=orthogonalEdgeStyle;curved=1;entryX=0.487;entryY=0.013;entryDx=0;entryDy=0;entryPerimeter=0;exitX=0.5;exitY=1;exitDx=0;exitDy=0;" parent="1" source="22" target="26" edge="1"><mxGeometry width="160" relative="1" as="geometry"><mxPoint x="310" y="210" as="sourcePoint"/><mxPoint x="390" y="250" as="targetPoint"/></mxGeometry></mxCell><mxCell id="43" value="Use" style="endArrow=open;endSize=12;dashed=1;html=1;edgeStyle=orthogonalEdgeStyle;curved=1;exitX=0.5;exitY=1;exitDx=0;exitDy=0;" parent="1" source="26" target="30" edge="1"><mxGeometry width="160" relative="1" as="geometry"><mxPoint x="320" y="220" as="sourcePoint"/><mxPoint x="400" y="260" as="targetPoint"/></mxGeometry></mxCell><mxCell id="44" value="Use" style="endArrow=open;endSize=12;dashed=1;html=1;edgeStyle=orthogonalEdgeStyle;curved=1;entryX=0.5;entryY=0;entryDx=0;entryDy=0;" parent="1" source="30" target="34" edge="1"><mxGeometry width="160" relative="1" as="geometry"><mxPoint x="330" y="230" as="sourcePoint"/><mxPoint x="410" y="270" as="targetPoint"/></mxGeometry></mxCell></root></mxGraphModel></diagram></mxfile>